# xmcd
#
# Track frame offsets:
#	150
#	12825
#	24555
#	37275
#	46400
#	57170
#	67990
#	77045
#	87490
#	95735
#	109190
#	119590
#	132255
#	144460
#	156360
#	171255
#	180920
#	192815
#	203420
#	212280
#	221895
#	233520
#	246390
#	258710
#
# Disc length: 3581 seconds
#
# Revision: 1
# Processed by: cddbd v1.5.1PL0 Copyright (c) Steve Scherf et al.
# Submitted via: audiograbber 1.83.01
#
DISCID=590dfb18
DTITLE=Porter Wagoner - Great Old Gospel
DYEAR=1900
DGENRE=Gospel
TTITLE0=Where No One Stands Alone
TTITLE1=Rank Strangers
TTITLE2=You're Not Home Yet
TTITLE3=Lord, Build Me A Cabin
TTITLE4=There'd Be No Need For Heaven
TTITLE5=Where The Soul Never Dies
TTITLE6=Beautiful Wings
TTITLE7=God Walks These Hills With Me
TTITLE8=Tell Your Children
TTITLE9=God's Wonderful Way
TTITLE10=I'll Fly Away
TTITLE11=Thirty Pieces Of Silver
TTITLE12=I'm Going That Way
TTITLE13=Lord I'm Coming Home
TTITLE14=Pastor's Absent On Vacation
TTITLE15=Canaan's Land
TTITLE16=Dreaming Of A Little Cabin
TTITLE17=If Jesus Came To Your House
TTITLE18=I'll Meet You In Church Sunday Morning
TTITLE19=Mama's Bible
TTITLE20=The Finer Taste Of Man
TTITLE21=The Wings Of A Dove
TTITLE22=Suppertime
TTITLE23=From The Cradle To The Grave
EXTD=
EXTT0=
EXTT1=
EXTT2=
EXTT3=
EXTT4=
EXTT5=
EXTT6=
EXTT7=
EXTT8=
EXTT9=
EXTT10=
EXTT11=
EXTT12=
EXTT13=
EXTT14=
EXTT15=
EXTT16=
EXTT17=
EXTT18=
EXTT19=
EXTT20=
EXTT21=
EXTT22=
EXTT23=
PLAYORDER=
